<?xml version="1.0" encoding="iso-8859-1"?>
<!-- Generator: Adobe Illustrator 19.0.0, SVG Export Plug-In . SVG Version: 6.00 Build 0)  -->
<svg xmlns="http://www.w3.org/2000/svg" xmlns:xlink="http://www.w3.org/1999/xlink" version="1.1" id="Layer_1" x="0px" y="0px" viewBox="0 0 458.033 458.033" style="enable-background:new 0 0 458.033 458.033;" xml:space="preserve" width="512px" height="512px">
<g>
	<g>
		<path d="M356.445,188.234c-2.154-68.528-58.377-123.422-127.428-123.422s-125.274,54.894-127.428,123.422    C45.4,188.724,0,234.417,0,290.721c0,56.609,45.891,102.5,102.5,102.5c34.14,0,218.894,0,253.033,0    c56.609,0,102.5-45.891,102.5-102.5C458.033,234.417,412.634,188.724,356.445,188.234z M312.264,282.706    c-9.757,9.757-25.586,9.77-35.355,0l-25.892-25.892v60.35c0,13.807-11.193,25-25.001,25c-13.808,0-25-11.193-25-25v-60.351    l-25.893,25.893c-9.762,9.763-25.591,9.763-35.355,0c-9.763-9.763-9.763-25.592,0-35.355c74.046-74.046,68.71-68.751,69.71-69.633    c9.959-8.796,24.944-8.21,34.216,1.063l68.569,68.57C322.027,257.114,322.027,272.943,312.264,282.706z" fill="#FFFFFF"/>
	</g>
</g>
<g>
</g>
<g>
</g>
<g>
</g>
<g>
</g>
<g>
</g>
<g>
</g>
<g>
</g>
<g>
</g>
<g>
</g>
<g>
</g>
<g>
</g>
<g>
</g>
<g>
</g>
<g>
</g>
<g>
</g>
</svg>
