<?xml version="1.0" encoding="iso-8859-1"?>
<!-- Generator: Adobe Illustrator 19.0.0, SVG Export Plug-In . SVG Version: 6.00 Build 0)  -->
<svg xmlns="http://www.w3.org/2000/svg" xmlns:xlink="http://www.w3.org/1999/xlink" version="1.1" id="Layer_1" x="0px" y="0px" viewBox="0 0 455.634 455.634" style="enable-background:new 0 0 455.634 455.634;" xml:space="preserve" width="512px" height="512px">
<g>
	<g>
		<g>
			<path d="M450.307,218.833l-114.197-62.456l33.337-62.286c1.214-2.269,0.8-5.065-1.019-6.884c-1.82-1.82-4.616-2.234-6.885-1.02     l-62.286,33.336L236.802,5.327C235.005,2.043,231.56,0,227.818,0s-7.188,2.043-8.984,5.327l-62.456,114.196L94.091,86.187     c-2.269-1.214-5.065-0.8-6.885,1.02c-1.819,1.819-2.233,4.616-1.019,6.884l33.337,62.286L5.328,218.833     C2.044,220.628,0,224.074,0,227.817c0,3.743,2.043,7.188,5.327,8.984l114.197,62.456l-33.337,62.286     c-1.214,2.269-0.8,5.065,1.019,6.884c1.82,1.82,4.616,2.234,6.885,1.02l62.285-33.337l62.456,114.197     c1.796,3.284,5.241,5.327,8.984,5.327c3.743,0,7.188-2.042,8.984-5.327l62.457-114.197l62.285,33.337     c2.269,1.214,5.065,0.8,6.885-1.02c1.82-1.819,2.233-4.615,1.019-6.884l-33.337-62.286l114.197-62.456     c3.284-1.796,5.327-5.241,5.327-8.984C455.635,224.074,453.591,220.628,450.307,218.833z M227.818,310.115     c-45.415,0-82.298-37.062-82.298-82.298c0-45.416,37.062-82.298,82.298-82.298c45.391,0,82.297,37.041,82.297,82.298     C310.115,273.232,273.054,310.115,227.818,310.115z" fill="#FFFFFF"/>
			<path d="M227.818,195.519c-17.809,0-32.298,14.489-32.298,32.298c0,17.809,14.489,32.298,32.298,32.298     s32.297-14.489,32.297-32.298C260.115,210.008,245.627,195.519,227.818,195.519z" fill="#FFFFFF"/>
		</g>
	</g>
</g>
<g>
</g>
<g>
</g>
<g>
</g>
<g>
</g>
<g>
</g>
<g>
</g>
<g>
</g>
<g>
</g>
<g>
</g>
<g>
</g>
<g>
</g>
<g>
</g>
<g>
</g>
<g>
</g>
<g>
</g>
</svg>
